<mxfile host="app.diagrams.net" modified="2023-05-16T12:00:25.226Z" agent="Mozilla/5.0 (Macintosh; Intel Mac OS X 10_15_7) AppleWebKit/537.36 (KHTML, like Gecko) Chrome/112.0.0.0 Safari/537.36" etag="MDq1l-rKIctwVSivmyXI" version="21.2.9" type="github">
  <diagram name="Page-1" id="PGpE8NxMU9o_gGsEM3-Z">
    <mxGraphModel dx="789" dy="422" grid="1" gridSize="10" guides="1" tooltips="1" connect="1" arrows="1" fold="1" page="1" pageScale="1" pageWidth="827" pageHeight="1169" math="0" shadow="0">
      <root>
        <mxCell id="0" />
        <mxCell id="1" parent="0" />
        <mxCell id="tB8VPmVk6WtlkbhnAfc9-70" value="" style="rounded=0;whiteSpace=wrap;html=1;fillColor=default;dashed=1;" parent="1" vertex="1">
          <mxGeometry x="40" y="1160" width="800" height="280" as="geometry" />
        </mxCell>
        <mxCell id="tB8VPmVk6WtlkbhnAfc9-74" value="" style="rounded=0;whiteSpace=wrap;html=1;fillColor=default;dashed=1;" parent="1" vertex="1">
          <mxGeometry x="20" y="1830" width="800" height="280" as="geometry" />
        </mxCell>
        <mxCell id="tB8VPmVk6WtlkbhnAfc9-75" value="simple architecture, using labels in a CRUD fashion, allows to extend to more topics&amp;nbsp;" style="text;html=1;strokeColor=none;fillColor=none;align=center;verticalAlign=middle;whiteSpace=wrap;rounded=0;" parent="1" vertex="1">
          <mxGeometry x="170" y="1830" width="500" height="30" as="geometry" />
        </mxCell>
        <mxCell id="tB8VPmVk6WtlkbhnAfc9-72" value="" style="rounded=0;whiteSpace=wrap;html=1;fillColor=default;dashed=1;" parent="1" vertex="1">
          <mxGeometry x="20" y="1520" width="800" height="280" as="geometry" />
        </mxCell>
        <mxCell id="tB8VPmVk6WtlkbhnAfc9-73" value="works, but maybe not the best architecture&amp;nbsp;" style="text;html=1;strokeColor=none;fillColor=none;align=center;verticalAlign=middle;whiteSpace=wrap;rounded=0;" parent="1" vertex="1">
          <mxGeometry x="170" y="1520" width="500" height="30" as="geometry" />
        </mxCell>
        <mxCell id="tB8VPmVk6WtlkbhnAfc9-71" value="Does not work, SB Consumer can only consume from one topic" style="text;html=1;strokeColor=none;fillColor=none;align=center;verticalAlign=middle;whiteSpace=wrap;rounded=0;" parent="1" vertex="1">
          <mxGeometry x="190" y="1160" width="500" height="30" as="geometry" />
        </mxCell>
        <mxCell id="tB8VPmVk6WtlkbhnAfc9-68" value="" style="rounded=0;whiteSpace=wrap;html=1;fillColor=default;dashed=1;" parent="1" vertex="1">
          <mxGeometry x="40" y="800" width="800" height="280" as="geometry" />
        </mxCell>
        <mxCell id="gos6sAqnO3sps4v2v4FD-9" style="edgeStyle=orthogonalEdgeStyle;rounded=0;orthogonalLoop=1;jettySize=auto;html=1;entryX=0.5;entryY=0;entryDx=0;entryDy=0;" parent="1" source="gos6sAqnO3sps4v2v4FD-5" target="gos6sAqnO3sps4v2v4FD-8" edge="1">
          <mxGeometry relative="1" as="geometry" />
        </mxCell>
        <mxCell id="gos6sAqnO3sps4v2v4FD-5" value="Portal User" style="rounded=1;whiteSpace=wrap;html=1;" parent="1" vertex="1">
          <mxGeometry x="40" y="80" width="120" height="40" as="geometry" />
        </mxCell>
        <mxCell id="gos6sAqnO3sps4v2v4FD-18" style="edgeStyle=orthogonalEdgeStyle;rounded=0;orthogonalLoop=1;jettySize=auto;html=1;entryX=0.5;entryY=0;entryDx=0;entryDy=0;" parent="1" source="gos6sAqnO3sps4v2v4FD-8" target="gos6sAqnO3sps4v2v4FD-17" edge="1">
          <mxGeometry relative="1" as="geometry" />
        </mxCell>
        <mxCell id="gos6sAqnO3sps4v2v4FD-8" value="APIM" style="rounded=1;whiteSpace=wrap;html=1;" parent="1" vertex="1">
          <mxGeometry x="40" y="160" width="120" height="40" as="geometry" />
        </mxCell>
        <mxCell id="gos6sAqnO3sps4v2v4FD-13" style="edgeStyle=orthogonalEdgeStyle;rounded=0;orthogonalLoop=1;jettySize=auto;html=1;entryX=0.5;entryY=0;entryDx=0;entryDy=0;" parent="1" source="gos6sAqnO3sps4v2v4FD-10" target="gos6sAqnO3sps4v2v4FD-12" edge="1">
          <mxGeometry relative="1" as="geometry" />
        </mxCell>
        <mxCell id="gos6sAqnO3sps4v2v4FD-10" value="Cloud" style="rounded=1;whiteSpace=wrap;html=1;" parent="1" vertex="1">
          <mxGeometry x="40" y="360" width="120" height="40" as="geometry" />
        </mxCell>
        <mxCell id="gos6sAqnO3sps4v2v4FD-15" style="edgeStyle=orthogonalEdgeStyle;rounded=0;orthogonalLoop=1;jettySize=auto;html=1;entryX=0.5;entryY=0;entryDx=0;entryDy=0;" parent="1" source="gos6sAqnO3sps4v2v4FD-12" target="gos6sAqnO3sps4v2v4FD-14" edge="1">
          <mxGeometry relative="1" as="geometry" />
        </mxCell>
        <mxCell id="gos6sAqnO3sps4v2v4FD-12" value="Reporting Function" style="rounded=1;whiteSpace=wrap;html=1;" parent="1" vertex="1">
          <mxGeometry x="40" y="440" width="120" height="40" as="geometry" />
        </mxCell>
        <mxCell id="gos6sAqnO3sps4v2v4FD-21" style="edgeStyle=orthogonalEdgeStyle;rounded=0;orthogonalLoop=1;jettySize=auto;html=1;entryX=0.5;entryY=0;entryDx=0;entryDy=0;" parent="1" source="gos6sAqnO3sps4v2v4FD-14" target="gos6sAqnO3sps4v2v4FD-20" edge="1">
          <mxGeometry relative="1" as="geometry" />
        </mxCell>
        <mxCell id="gos6sAqnO3sps4v2v4FD-14" value="Stripe" style="rounded=1;whiteSpace=wrap;html=1;" parent="1" vertex="1">
          <mxGeometry x="40" y="520" width="120" height="40" as="geometry" />
        </mxCell>
        <mxCell id="gos6sAqnO3sps4v2v4FD-19" value="yes" style="edgeStyle=orthogonalEdgeStyle;rounded=0;orthogonalLoop=1;jettySize=auto;html=1;entryX=0.5;entryY=0;entryDx=0;entryDy=0;" parent="1" source="gos6sAqnO3sps4v2v4FD-17" target="gos6sAqnO3sps4v2v4FD-10" edge="1">
          <mxGeometry relative="1" as="geometry" />
        </mxCell>
        <mxCell id="gos6sAqnO3sps4v2v4FD-23" style="edgeStyle=orthogonalEdgeStyle;rounded=0;orthogonalLoop=1;jettySize=auto;html=1;entryX=0;entryY=0.5;entryDx=0;entryDy=0;" parent="1" source="gos6sAqnO3sps4v2v4FD-17" target="gos6sAqnO3sps4v2v4FD-22" edge="1">
          <mxGeometry relative="1" as="geometry" />
        </mxCell>
        <mxCell id="gos6sAqnO3sps4v2v4FD-24" value="No" style="edgeLabel;html=1;align=center;verticalAlign=middle;resizable=0;points=[];" parent="gos6sAqnO3sps4v2v4FD-23" vertex="1" connectable="0">
          <mxGeometry x="-0.55" y="-2" relative="1" as="geometry">
            <mxPoint as="offset" />
          </mxGeometry>
        </mxCell>
        <mxCell id="gos6sAqnO3sps4v2v4FD-17" value="Is Product Valid?" style="rhombus;whiteSpace=wrap;html=1;" parent="1" vertex="1">
          <mxGeometry x="40" y="240" width="120" height="80" as="geometry" />
        </mxCell>
        <mxCell id="gos6sAqnO3sps4v2v4FD-20" value="Is Consumption Over?" style="rhombus;whiteSpace=wrap;html=1;" parent="1" vertex="1">
          <mxGeometry x="40" y="600" width="120" height="80" as="geometry" />
        </mxCell>
        <mxCell id="gos6sAqnO3sps4v2v4FD-22" value="End" style="ellipse;whiteSpace=wrap;html=1;aspect=fixed;" parent="1" vertex="1">
          <mxGeometry x="200" y="240" width="80" height="80" as="geometry" />
        </mxCell>
        <mxCell id="Wvdfet8sfPGVuzwIlx4f-3" style="edgeStyle=orthogonalEdgeStyle;rounded=0;orthogonalLoop=1;jettySize=auto;html=1;entryX=0.5;entryY=0;entryDx=0;entryDy=0;" parent="1" source="Wvdfet8sfPGVuzwIlx4f-1" target="Wvdfet8sfPGVuzwIlx4f-2" edge="1">
          <mxGeometry relative="1" as="geometry" />
        </mxCell>
        <mxCell id="Wvdfet8sfPGVuzwIlx4f-1" value="Video Posted to Controller" style="rounded=1;whiteSpace=wrap;html=1;fillColor=#d5e8d4;strokeColor=#82b366;" parent="1" vertex="1">
          <mxGeometry x="360" y="120" width="120" height="40" as="geometry" />
        </mxCell>
        <mxCell id="Wvdfet8sfPGVuzwIlx4f-16" style="edgeStyle=orthogonalEdgeStyle;rounded=0;orthogonalLoop=1;jettySize=auto;html=1;entryX=0.501;entryY=-0.07;entryDx=0;entryDy=0;entryPerimeter=0;" parent="1" source="Wvdfet8sfPGVuzwIlx4f-2" target="Wvdfet8sfPGVuzwIlx4f-15" edge="1">
          <mxGeometry relative="1" as="geometry" />
        </mxCell>
        <mxCell id="Wvdfet8sfPGVuzwIlx4f-2" value="Report Pre-processed Consumption" style="rounded=1;whiteSpace=wrap;html=1;fillColor=#d5e8d4;strokeColor=#82b366;" parent="1" vertex="1">
          <mxGeometry x="360" y="200" width="120" height="40" as="geometry" />
        </mxCell>
        <mxCell id="Wvdfet8sfPGVuzwIlx4f-8" value="yes" style="edgeStyle=orthogonalEdgeStyle;rounded=0;orthogonalLoop=1;jettySize=auto;html=1;entryX=0;entryY=0.5;entryDx=0;entryDy=0;" parent="1" source="Wvdfet8sfPGVuzwIlx4f-4" target="Wvdfet8sfPGVuzwIlx4f-7" edge="1">
          <mxGeometry relative="1" as="geometry" />
        </mxCell>
        <mxCell id="Wvdfet8sfPGVuzwIlx4f-21" value="no" style="edgeStyle=orthogonalEdgeStyle;rounded=0;orthogonalLoop=1;jettySize=auto;html=1;" parent="1" source="Wvdfet8sfPGVuzwIlx4f-4" target="Wvdfet8sfPGVuzwIlx4f-19" edge="1">
          <mxGeometry relative="1" as="geometry" />
        </mxCell>
        <mxCell id="Wvdfet8sfPGVuzwIlx4f-4" value="User is Over Consumption&amp;nbsp;" style="rhombus;whiteSpace=wrap;html=1;fillColor=#dae8fc;strokeColor=#6c8ebf;" parent="1" vertex="1">
          <mxGeometry x="360" y="400" width="120" height="80" as="geometry" />
        </mxCell>
        <mxCell id="Wvdfet8sfPGVuzwIlx4f-5" value="Controller" style="rounded=1;whiteSpace=wrap;html=1;fillColor=#d5e8d4;strokeColor=#82b366;" parent="1" vertex="1">
          <mxGeometry x="360" y="40" width="120" height="40" as="geometry" />
        </mxCell>
        <mxCell id="Wvdfet8sfPGVuzwIlx4f-6" value="Reporting Function" style="rounded=1;whiteSpace=wrap;html=1;fillColor=#dae8fc;strokeColor=#6c8ebf;" parent="1" vertex="1">
          <mxGeometry x="520" y="40" width="120" height="40" as="geometry" />
        </mxCell>
        <mxCell id="Wvdfet8sfPGVuzwIlx4f-7" value="Return 4xx" style="rounded=1;whiteSpace=wrap;html=1;fillColor=#dae8fc;strokeColor=#6c8ebf;" parent="1" vertex="1">
          <mxGeometry x="520" y="420" width="120" height="40" as="geometry" />
        </mxCell>
        <mxCell id="Wvdfet8sfPGVuzwIlx4f-17" style="edgeStyle=orthogonalEdgeStyle;rounded=0;orthogonalLoop=1;jettySize=auto;html=1;entryX=0.5;entryY=0;entryDx=0;entryDy=0;" parent="1" source="Wvdfet8sfPGVuzwIlx4f-15" target="Wvdfet8sfPGVuzwIlx4f-4" edge="1">
          <mxGeometry relative="1" as="geometry" />
        </mxCell>
        <mxCell id="Wvdfet8sfPGVuzwIlx4f-18" value="no" style="edgeLabel;html=1;align=center;verticalAlign=middle;resizable=0;points=[];" parent="Wvdfet8sfPGVuzwIlx4f-17" vertex="1" connectable="0">
          <mxGeometry x="-0.2786" relative="1" as="geometry">
            <mxPoint as="offset" />
          </mxGeometry>
        </mxCell>
        <mxCell id="Wvdfet8sfPGVuzwIlx4f-22" style="edgeStyle=orthogonalEdgeStyle;rounded=0;orthogonalLoop=1;jettySize=auto;html=1;entryX=0;entryY=0.5;entryDx=0;entryDy=0;" parent="1" source="Wvdfet8sfPGVuzwIlx4f-15" target="Wvdfet8sfPGVuzwIlx4f-19" edge="1">
          <mxGeometry relative="1" as="geometry">
            <Array as="points">
              <mxPoint x="320" y="320" />
              <mxPoint x="320" y="540" />
            </Array>
          </mxGeometry>
        </mxCell>
        <mxCell id="Wvdfet8sfPGVuzwIlx4f-23" value="yes" style="edgeLabel;html=1;align=center;verticalAlign=middle;resizable=0;points=[];" parent="Wvdfet8sfPGVuzwIlx4f-22" vertex="1" connectable="0">
          <mxGeometry x="-0.2087" y="-1" relative="1" as="geometry">
            <mxPoint as="offset" />
          </mxGeometry>
        </mxCell>
        <mxCell id="Wvdfet8sfPGVuzwIlx4f-15" value="Reporting Function Offline?" style="rhombus;whiteSpace=wrap;html=1;fillColor=#d5e8d4;strokeColor=#82b366;" parent="1" vertex="1">
          <mxGeometry x="360" y="280" width="120" height="80" as="geometry" />
        </mxCell>
        <mxCell id="Wvdfet8sfPGVuzwIlx4f-19" value="Submit Data to Queue" style="rounded=1;whiteSpace=wrap;html=1;fillColor=#d5e8d4;strokeColor=#82b366;" parent="1" vertex="1">
          <mxGeometry x="360" y="520" width="120" height="40" as="geometry" />
        </mxCell>
        <mxCell id="Wvdfet8sfPGVuzwIlx4f-20" value="you have overconsumed. contact brighter, or try again later if you currently have other videos processing" style="text;html=1;strokeColor=none;fillColor=none;align=center;verticalAlign=middle;whiteSpace=wrap;rounded=0;" parent="1" vertex="1">
          <mxGeometry x="530" y="470" width="220" height="30" as="geometry" />
        </mxCell>
        <mxCell id="Wvdfet8sfPGVuzwIlx4f-24" value="Queue Consumer" style="rounded=1;whiteSpace=wrap;html=1;fillColor=#fff2cc;strokeColor=#d6b656;" parent="1" vertex="1">
          <mxGeometry x="680" y="40" width="120" height="40" as="geometry" />
        </mxCell>
        <mxCell id="Wvdfet8sfPGVuzwIlx4f-25" value="Queue Consumer" style="rounded=1;whiteSpace=wrap;html=1;fillColor=#fff2cc;strokeColor=#d6b656;" parent="1" vertex="1">
          <mxGeometry x="360" y="600" width="120" height="40" as="geometry" />
        </mxCell>
        <mxCell id="tB8VPmVk6WtlkbhnAfc9-10" style="edgeStyle=orthogonalEdgeStyle;rounded=0;orthogonalLoop=1;jettySize=auto;html=1;entryX=0;entryY=0.5;entryDx=0;entryDy=0;" parent="1" source="tB8VPmVk6WtlkbhnAfc9-1" target="tB8VPmVk6WtlkbhnAfc9-2" edge="1">
          <mxGeometry relative="1" as="geometry" />
        </mxCell>
        <mxCell id="tB8VPmVk6WtlkbhnAfc9-12" value="POST" style="edgeLabel;html=1;align=center;verticalAlign=middle;resizable=0;points=[];" parent="tB8VPmVk6WtlkbhnAfc9-10" vertex="1" connectable="0">
          <mxGeometry x="-0.2" y="-1" relative="1" as="geometry">
            <mxPoint x="-1" as="offset" />
          </mxGeometry>
        </mxCell>
        <mxCell id="tB8VPmVk6WtlkbhnAfc9-11" style="edgeStyle=orthogonalEdgeStyle;rounded=0;orthogonalLoop=1;jettySize=auto;html=1;entryX=0;entryY=0.5;entryDx=0;entryDy=0;" parent="1" source="tB8VPmVk6WtlkbhnAfc9-1" target="tB8VPmVk6WtlkbhnAfc9-5" edge="1">
          <mxGeometry relative="1" as="geometry">
            <Array as="points">
              <mxPoint x="140" y="1020" />
            </Array>
          </mxGeometry>
        </mxCell>
        <mxCell id="tB8VPmVk6WtlkbhnAfc9-13" value="PUT" style="edgeLabel;html=1;align=center;verticalAlign=middle;resizable=0;points=[];" parent="tB8VPmVk6WtlkbhnAfc9-11" vertex="1" connectable="0">
          <mxGeometry x="0.4518" y="-2" relative="1" as="geometry">
            <mxPoint x="-1" as="offset" />
          </mxGeometry>
        </mxCell>
        <mxCell id="tB8VPmVk6WtlkbhnAfc9-1" value="Consumption" style="rounded=1;whiteSpace=wrap;html=1;fillColor=#d5e8d4;strokeColor=#82b366;" parent="1" vertex="1">
          <mxGeometry x="80" y="840" width="120" height="40" as="geometry" />
        </mxCell>
        <mxCell id="tB8VPmVk6WtlkbhnAfc9-14" style="edgeStyle=orthogonalEdgeStyle;rounded=0;orthogonalLoop=1;jettySize=auto;html=1;entryX=0;entryY=0.5;entryDx=0;entryDy=0;" parent="1" source="tB8VPmVk6WtlkbhnAfc9-2" target="tB8VPmVk6WtlkbhnAfc9-7" edge="1">
          <mxGeometry relative="1" as="geometry" />
        </mxCell>
        <mxCell id="tB8VPmVk6WtlkbhnAfc9-15" style="edgeStyle=orthogonalEdgeStyle;rounded=0;orthogonalLoop=1;jettySize=auto;html=1;entryX=0;entryY=0.5;entryDx=0;entryDy=0;" parent="1" source="tB8VPmVk6WtlkbhnAfc9-2" target="tB8VPmVk6WtlkbhnAfc9-9" edge="1">
          <mxGeometry relative="1" as="geometry">
            <Array as="points">
              <mxPoint x="340" y="940" />
            </Array>
          </mxGeometry>
        </mxCell>
        <mxCell id="tB8VPmVk6WtlkbhnAfc9-2" value="create" style="rounded=1;whiteSpace=wrap;html=1;fillColor=#dae8fc;strokeColor=#6c8ebf;" parent="1" vertex="1">
          <mxGeometry x="280" y="840" width="120" height="40" as="geometry" />
        </mxCell>
        <mxCell id="tB8VPmVk6WtlkbhnAfc9-3" value="HTTP" style="rounded=1;whiteSpace=wrap;html=1;fillColor=#d5e8d4;strokeColor=#82b366;" parent="1" vertex="1">
          <mxGeometry x="160" y="720" width="120" height="40" as="geometry" />
        </mxCell>
        <mxCell id="tB8VPmVk6WtlkbhnAfc9-4" value="SB Topic" style="rounded=1;whiteSpace=wrap;html=1;fillColor=#dae8fc;strokeColor=#6c8ebf;" parent="1" vertex="1">
          <mxGeometry x="320" y="720" width="120" height="40" as="geometry" />
        </mxCell>
        <mxCell id="tB8VPmVk6WtlkbhnAfc9-16" style="edgeStyle=orthogonalEdgeStyle;rounded=0;orthogonalLoop=1;jettySize=auto;html=1;entryX=0;entryY=0.5;entryDx=0;entryDy=0;" parent="1" source="tB8VPmVk6WtlkbhnAfc9-5" target="tB8VPmVk6WtlkbhnAfc9-8" edge="1">
          <mxGeometry relative="1" as="geometry" />
        </mxCell>
        <mxCell id="tB8VPmVk6WtlkbhnAfc9-5" value="update" style="rounded=1;whiteSpace=wrap;html=1;fillColor=#dae8fc;strokeColor=#6c8ebf;" parent="1" vertex="1">
          <mxGeometry x="280" y="1000" width="120" height="40" as="geometry" />
        </mxCell>
        <mxCell id="tB8VPmVk6WtlkbhnAfc9-6" value="SB Consumer" style="rounded=1;whiteSpace=wrap;html=1;fillColor=#fff2cc;strokeColor=#d6b656;" parent="1" vertex="1">
          <mxGeometry x="480" y="720" width="120" height="40" as="geometry" />
        </mxCell>
        <mxCell id="tB8VPmVk6WtlkbhnAfc9-18" style="edgeStyle=orthogonalEdgeStyle;rounded=0;orthogonalLoop=1;jettySize=auto;html=1;entryX=0;entryY=0.5;entryDx=0;entryDy=0;" parent="1" source="tB8VPmVk6WtlkbhnAfc9-7" target="tB8VPmVk6WtlkbhnAfc9-17" edge="1">
          <mxGeometry relative="1" as="geometry" />
        </mxCell>
        <mxCell id="tB8VPmVk6WtlkbhnAfc9-20" value="POST" style="edgeLabel;html=1;align=center;verticalAlign=middle;resizable=0;points=[];" parent="tB8VPmVk6WtlkbhnAfc9-18" vertex="1" connectable="0">
          <mxGeometry x="-0.3563" y="-1" relative="1" as="geometry">
            <mxPoint x="-1" as="offset" />
          </mxGeometry>
        </mxCell>
        <mxCell id="tB8VPmVk6WtlkbhnAfc9-7" value="Portal Create" style="rounded=1;whiteSpace=wrap;html=1;fillColor=#fff2cc;strokeColor=#d6b656;" parent="1" vertex="1">
          <mxGeometry x="480" y="840" width="120" height="40" as="geometry" />
        </mxCell>
        <mxCell id="tB8VPmVk6WtlkbhnAfc9-19" style="edgeStyle=orthogonalEdgeStyle;rounded=0;orthogonalLoop=1;jettySize=auto;html=1;" parent="1" source="tB8VPmVk6WtlkbhnAfc9-8" target="tB8VPmVk6WtlkbhnAfc9-17" edge="1">
          <mxGeometry relative="1" as="geometry" />
        </mxCell>
        <mxCell id="tB8VPmVk6WtlkbhnAfc9-21" value="PUT" style="edgeLabel;html=1;align=center;verticalAlign=middle;resizable=0;points=[];" parent="tB8VPmVk6WtlkbhnAfc9-19" vertex="1" connectable="0">
          <mxGeometry x="-0.6554" relative="1" as="geometry">
            <mxPoint x="-1" y="-1" as="offset" />
          </mxGeometry>
        </mxCell>
        <mxCell id="tB8VPmVk6WtlkbhnAfc9-8" value="Portal Update" style="rounded=1;whiteSpace=wrap;html=1;fillColor=#fff2cc;strokeColor=#d6b656;" parent="1" vertex="1">
          <mxGeometry x="480" y="1000" width="120" height="40" as="geometry" />
        </mxCell>
        <mxCell id="tB8VPmVk6WtlkbhnAfc9-9" value="Email Notif" style="rounded=1;whiteSpace=wrap;html=1;fillColor=#fff2cc;strokeColor=#d6b656;" parent="1" vertex="1">
          <mxGeometry x="480" y="920" width="120" height="40" as="geometry" />
        </mxCell>
        <mxCell id="tB8VPmVk6WtlkbhnAfc9-17" value="Portal Report" style="rounded=1;whiteSpace=wrap;html=1;fillColor=#d5e8d4;strokeColor=#82b366;" parent="1" vertex="1">
          <mxGeometry x="680" y="840" width="120" height="40" as="geometry" />
        </mxCell>
        <mxCell id="tB8VPmVk6WtlkbhnAfc9-24" style="edgeStyle=orthogonalEdgeStyle;rounded=0;orthogonalLoop=1;jettySize=auto;html=1;entryX=0;entryY=0.5;entryDx=0;entryDy=0;" parent="1" source="tB8VPmVk6WtlkbhnAfc9-22" target="tB8VPmVk6WtlkbhnAfc9-23" edge="1">
          <mxGeometry relative="1" as="geometry" />
        </mxCell>
        <mxCell id="tB8VPmVk6WtlkbhnAfc9-22" value="Consumption" style="rounded=1;whiteSpace=wrap;html=1;fillColor=#d5e8d4;strokeColor=#82b366;" parent="1" vertex="1">
          <mxGeometry x="80" y="1880" width="120" height="40" as="geometry" />
        </mxCell>
        <mxCell id="tB8VPmVk6WtlkbhnAfc9-26" style="edgeStyle=orthogonalEdgeStyle;rounded=0;orthogonalLoop=1;jettySize=auto;html=1;entryX=0;entryY=0.5;entryDx=0;entryDy=0;" parent="1" source="tB8VPmVk6WtlkbhnAfc9-23" target="tB8VPmVk6WtlkbhnAfc9-25" edge="1">
          <mxGeometry relative="1" as="geometry" />
        </mxCell>
        <mxCell id="tB8VPmVk6WtlkbhnAfc9-28" style="edgeStyle=orthogonalEdgeStyle;rounded=0;orthogonalLoop=1;jettySize=auto;html=1;entryX=0;entryY=0.5;entryDx=0;entryDy=0;" parent="1" source="tB8VPmVk6WtlkbhnAfc9-23" target="tB8VPmVk6WtlkbhnAfc9-27" edge="1">
          <mxGeometry relative="1" as="geometry">
            <Array as="points">
              <mxPoint x="400" y="1980" />
            </Array>
          </mxGeometry>
        </mxCell>
        <mxCell id="tB8VPmVk6WtlkbhnAfc9-29" value="create" style="edgeLabel;html=1;align=center;verticalAlign=middle;resizable=0;points=[];" parent="tB8VPmVk6WtlkbhnAfc9-28" vertex="1" connectable="0">
          <mxGeometry x="-0.0844" y="-3" relative="1" as="geometry">
            <mxPoint x="-1" as="offset" />
          </mxGeometry>
        </mxCell>
        <mxCell id="tB8VPmVk6WtlkbhnAfc9-31" style="edgeStyle=orthogonalEdgeStyle;rounded=0;orthogonalLoop=1;jettySize=auto;html=1;entryX=0;entryY=0.5;entryDx=0;entryDy=0;" parent="1" source="tB8VPmVk6WtlkbhnAfc9-23" target="tB8VPmVk6WtlkbhnAfc9-30" edge="1">
          <mxGeometry relative="1" as="geometry">
            <Array as="points">
              <mxPoint x="360" y="2060" />
            </Array>
          </mxGeometry>
        </mxCell>
        <mxCell id="tB8VPmVk6WtlkbhnAfc9-23" value="ConsumptionData&lt;br&gt;Labels:&amp;nbsp;create, update" style="rounded=1;whiteSpace=wrap;html=1;fillColor=#dae8fc;strokeColor=#6c8ebf;" parent="1" vertex="1">
          <mxGeometry x="280" y="1860" width="160" height="80" as="geometry" />
        </mxCell>
        <mxCell id="tB8VPmVk6WtlkbhnAfc9-25" value="Portal Report" style="rounded=1;whiteSpace=wrap;html=1;fillColor=#fff2cc;strokeColor=#d6b656;" parent="1" vertex="1">
          <mxGeometry x="520" y="1880" width="120" height="40" as="geometry" />
        </mxCell>
        <mxCell id="tB8VPmVk6WtlkbhnAfc9-27" value="Email Notif (current)" style="rounded=1;whiteSpace=wrap;html=1;fillColor=#fff2cc;strokeColor=#d6b656;" parent="1" vertex="1">
          <mxGeometry x="520" y="1960" width="120" height="40" as="geometry" />
        </mxCell>
        <mxCell id="tB8VPmVk6WtlkbhnAfc9-30" value="Overconsumption Notification" style="rounded=1;whiteSpace=wrap;html=1;fillColor=#fff2cc;strokeColor=#d6b656;" parent="1" vertex="1">
          <mxGeometry x="520" y="2040" width="120" height="40" as="geometry" />
        </mxCell>
        <mxCell id="tB8VPmVk6WtlkbhnAfc9-32" style="edgeStyle=orthogonalEdgeStyle;rounded=0;orthogonalLoop=1;jettySize=auto;html=1;entryX=0;entryY=0.5;entryDx=0;entryDy=0;" parent="1" source="tB8VPmVk6WtlkbhnAfc9-36" target="tB8VPmVk6WtlkbhnAfc9-39" edge="1">
          <mxGeometry relative="1" as="geometry" />
        </mxCell>
        <mxCell id="tB8VPmVk6WtlkbhnAfc9-33" value="POST" style="edgeLabel;html=1;align=center;verticalAlign=middle;resizable=0;points=[];" parent="tB8VPmVk6WtlkbhnAfc9-32" vertex="1" connectable="0">
          <mxGeometry x="-0.2" y="-1" relative="1" as="geometry">
            <mxPoint x="-1" as="offset" />
          </mxGeometry>
        </mxCell>
        <mxCell id="tB8VPmVk6WtlkbhnAfc9-34" style="edgeStyle=orthogonalEdgeStyle;rounded=0;orthogonalLoop=1;jettySize=auto;html=1;entryX=0;entryY=0.5;entryDx=0;entryDy=0;" parent="1" source="tB8VPmVk6WtlkbhnAfc9-36" target="tB8VPmVk6WtlkbhnAfc9-41" edge="1">
          <mxGeometry relative="1" as="geometry">
            <Array as="points">
              <mxPoint x="140" y="1380" />
            </Array>
          </mxGeometry>
        </mxCell>
        <mxCell id="tB8VPmVk6WtlkbhnAfc9-35" value="PUT" style="edgeLabel;html=1;align=center;verticalAlign=middle;resizable=0;points=[];" parent="tB8VPmVk6WtlkbhnAfc9-34" vertex="1" connectable="0">
          <mxGeometry x="0.4518" y="-2" relative="1" as="geometry">
            <mxPoint x="-1" as="offset" />
          </mxGeometry>
        </mxCell>
        <mxCell id="tB8VPmVk6WtlkbhnAfc9-36" value="Consumption" style="rounded=1;whiteSpace=wrap;html=1;fillColor=#d5e8d4;strokeColor=#82b366;" parent="1" vertex="1">
          <mxGeometry x="80" y="1200" width="120" height="40" as="geometry" />
        </mxCell>
        <mxCell id="tB8VPmVk6WtlkbhnAfc9-38" style="edgeStyle=orthogonalEdgeStyle;rounded=0;orthogonalLoop=1;jettySize=auto;html=1;entryX=0;entryY=0.5;entryDx=0;entryDy=0;" parent="1" source="tB8VPmVk6WtlkbhnAfc9-39" target="tB8VPmVk6WtlkbhnAfc9-48" edge="1">
          <mxGeometry relative="1" as="geometry">
            <Array as="points">
              <mxPoint x="410" y="1220" />
              <mxPoint x="410" y="1220" />
            </Array>
          </mxGeometry>
        </mxCell>
        <mxCell id="tB8VPmVk6WtlkbhnAfc9-51" style="edgeStyle=orthogonalEdgeStyle;rounded=0;orthogonalLoop=1;jettySize=auto;html=1;entryX=0.5;entryY=0;entryDx=0;entryDy=0;" parent="1" source="tB8VPmVk6WtlkbhnAfc9-39" target="tB8VPmVk6WtlkbhnAfc9-49" edge="1">
          <mxGeometry relative="1" as="geometry">
            <Array as="points">
              <mxPoint x="340" y="1300" />
              <mxPoint x="540" y="1300" />
            </Array>
          </mxGeometry>
        </mxCell>
        <mxCell id="tB8VPmVk6WtlkbhnAfc9-39" value="create" style="rounded=1;whiteSpace=wrap;html=1;fillColor=#dae8fc;strokeColor=#6c8ebf;" parent="1" vertex="1">
          <mxGeometry x="280" y="1200" width="120" height="40" as="geometry" />
        </mxCell>
        <mxCell id="tB8VPmVk6WtlkbhnAfc9-50" style="edgeStyle=orthogonalEdgeStyle;rounded=0;orthogonalLoop=1;jettySize=auto;html=1;entryX=0;entryY=0.5;entryDx=0;entryDy=0;" parent="1" source="tB8VPmVk6WtlkbhnAfc9-41" target="tB8VPmVk6WtlkbhnAfc9-49" edge="1">
          <mxGeometry relative="1" as="geometry" />
        </mxCell>
        <mxCell id="tB8VPmVk6WtlkbhnAfc9-41" value="update" style="rounded=1;whiteSpace=wrap;html=1;fillColor=#dae8fc;strokeColor=#6c8ebf;" parent="1" vertex="1">
          <mxGeometry x="280" y="1360" width="120" height="40" as="geometry" />
        </mxCell>
        <mxCell id="tB8VPmVk6WtlkbhnAfc9-48" value="Email Notif" style="rounded=1;whiteSpace=wrap;html=1;fillColor=#fff2cc;strokeColor=#d6b656;" parent="1" vertex="1">
          <mxGeometry x="480" y="1200" width="120" height="40" as="geometry" />
        </mxCell>
        <mxCell id="tB8VPmVk6WtlkbhnAfc9-49" value="Portal Report" style="rounded=1;whiteSpace=wrap;html=1;fillColor=#fff2cc;strokeColor=#d6b656;" parent="1" vertex="1">
          <mxGeometry x="480" y="1360" width="120" height="40" as="geometry" />
        </mxCell>
        <mxCell id="tB8VPmVk6WtlkbhnAfc9-52" style="edgeStyle=orthogonalEdgeStyle;rounded=0;orthogonalLoop=1;jettySize=auto;html=1;entryX=0;entryY=0.5;entryDx=0;entryDy=0;" parent="1" source="tB8VPmVk6WtlkbhnAfc9-56" target="tB8VPmVk6WtlkbhnAfc9-59" edge="1">
          <mxGeometry relative="1" as="geometry" />
        </mxCell>
        <mxCell id="tB8VPmVk6WtlkbhnAfc9-53" value="POST" style="edgeLabel;html=1;align=center;verticalAlign=middle;resizable=0;points=[];" parent="tB8VPmVk6WtlkbhnAfc9-52" vertex="1" connectable="0">
          <mxGeometry x="-0.2" y="-1" relative="1" as="geometry">
            <mxPoint x="-1" as="offset" />
          </mxGeometry>
        </mxCell>
        <mxCell id="tB8VPmVk6WtlkbhnAfc9-54" style="edgeStyle=orthogonalEdgeStyle;rounded=0;orthogonalLoop=1;jettySize=auto;html=1;entryX=0;entryY=0.5;entryDx=0;entryDy=0;" parent="1" source="tB8VPmVk6WtlkbhnAfc9-56" target="tB8VPmVk6WtlkbhnAfc9-61" edge="1">
          <mxGeometry relative="1" as="geometry">
            <Array as="points">
              <mxPoint x="133" y="1730" />
            </Array>
          </mxGeometry>
        </mxCell>
        <mxCell id="tB8VPmVk6WtlkbhnAfc9-55" value="PUT" style="edgeLabel;html=1;align=center;verticalAlign=middle;resizable=0;points=[];" parent="tB8VPmVk6WtlkbhnAfc9-54" vertex="1" connectable="0">
          <mxGeometry x="0.4518" y="-2" relative="1" as="geometry">
            <mxPoint x="-1" as="offset" />
          </mxGeometry>
        </mxCell>
        <mxCell id="tB8VPmVk6WtlkbhnAfc9-56" value="Consumption" style="rounded=1;whiteSpace=wrap;html=1;fillColor=#d5e8d4;strokeColor=#82b366;" parent="1" vertex="1">
          <mxGeometry x="73" y="1550" width="120" height="40" as="geometry" />
        </mxCell>
        <mxCell id="tB8VPmVk6WtlkbhnAfc9-57" style="edgeStyle=orthogonalEdgeStyle;rounded=0;orthogonalLoop=1;jettySize=auto;html=1;entryX=0;entryY=0.5;entryDx=0;entryDy=0;" parent="1" source="tB8VPmVk6WtlkbhnAfc9-59" target="tB8VPmVk6WtlkbhnAfc9-62" edge="1">
          <mxGeometry relative="1" as="geometry">
            <Array as="points">
              <mxPoint x="403" y="1570" />
              <mxPoint x="403" y="1570" />
            </Array>
          </mxGeometry>
        </mxCell>
        <mxCell id="tB8VPmVk6WtlkbhnAfc9-65" style="edgeStyle=orthogonalEdgeStyle;rounded=0;orthogonalLoop=1;jettySize=auto;html=1;entryX=0;entryY=0.5;entryDx=0;entryDy=0;" parent="1" source="tB8VPmVk6WtlkbhnAfc9-59" target="tB8VPmVk6WtlkbhnAfc9-64" edge="1">
          <mxGeometry relative="1" as="geometry">
            <Array as="points">
              <mxPoint x="333" y="1650" />
            </Array>
          </mxGeometry>
        </mxCell>
        <mxCell id="tB8VPmVk6WtlkbhnAfc9-59" value="create" style="rounded=1;whiteSpace=wrap;html=1;fillColor=#dae8fc;strokeColor=#6c8ebf;" parent="1" vertex="1">
          <mxGeometry x="273" y="1550" width="120" height="40" as="geometry" />
        </mxCell>
        <mxCell id="tB8VPmVk6WtlkbhnAfc9-66" style="edgeStyle=orthogonalEdgeStyle;rounded=0;orthogonalLoop=1;jettySize=auto;html=1;entryX=0;entryY=0.5;entryDx=0;entryDy=0;" parent="1" source="tB8VPmVk6WtlkbhnAfc9-61" target="tB8VPmVk6WtlkbhnAfc9-64" edge="1">
          <mxGeometry relative="1" as="geometry">
            <Array as="points">
              <mxPoint x="333" y="1650" />
            </Array>
          </mxGeometry>
        </mxCell>
        <mxCell id="tB8VPmVk6WtlkbhnAfc9-61" value="update" style="rounded=1;whiteSpace=wrap;html=1;fillColor=#dae8fc;strokeColor=#6c8ebf;" parent="1" vertex="1">
          <mxGeometry x="273" y="1710" width="120" height="40" as="geometry" />
        </mxCell>
        <mxCell id="tB8VPmVk6WtlkbhnAfc9-62" value="Email Notif" style="rounded=1;whiteSpace=wrap;html=1;fillColor=#fff2cc;strokeColor=#d6b656;" parent="1" vertex="1">
          <mxGeometry x="473" y="1550" width="120" height="40" as="geometry" />
        </mxCell>
        <mxCell id="tB8VPmVk6WtlkbhnAfc9-63" value="Portal Report" style="rounded=1;whiteSpace=wrap;html=1;fillColor=#fff2cc;strokeColor=#d6b656;" parent="1" vertex="1">
          <mxGeometry x="473" y="1710" width="120" height="40" as="geometry" />
        </mxCell>
        <mxCell id="tB8VPmVk6WtlkbhnAfc9-67" style="edgeStyle=orthogonalEdgeStyle;rounded=0;orthogonalLoop=1;jettySize=auto;html=1;entryX=0.5;entryY=0;entryDx=0;entryDy=0;" parent="1" source="tB8VPmVk6WtlkbhnAfc9-64" target="tB8VPmVk6WtlkbhnAfc9-63" edge="1">
          <mxGeometry relative="1" as="geometry" />
        </mxCell>
        <mxCell id="tB8VPmVk6WtlkbhnAfc9-64" value="report" style="rounded=1;whiteSpace=wrap;html=1;fillColor=#dae8fc;strokeColor=#6c8ebf;" parent="1" vertex="1">
          <mxGeometry x="473" y="1630" width="120" height="40" as="geometry" />
        </mxCell>
        <mxCell id="tB8VPmVk6WtlkbhnAfc9-69" value="Current Setup" style="text;html=1;strokeColor=none;fillColor=none;align=center;verticalAlign=middle;whiteSpace=wrap;rounded=0;" parent="1" vertex="1">
          <mxGeometry x="310" y="800" width="260" height="30" as="geometry" />
        </mxCell>
        <mxCell id="wnMtdSzb1h41-x0bOQ6u-1" value="" style="rounded=0;whiteSpace=wrap;html=1;fillColor=default;dashed=1;" vertex="1" parent="1">
          <mxGeometry x="20" y="2160" width="860" height="640" as="geometry" />
        </mxCell>
        <mxCell id="wnMtdSzb1h41-x0bOQ6u-2" value="simple architecture, using labels in a CRUD fashion, allows to extend to more topics&amp;nbsp;" style="text;html=1;strokeColor=none;fillColor=none;align=center;verticalAlign=middle;whiteSpace=wrap;rounded=0;" vertex="1" parent="1">
          <mxGeometry x="170" y="2160" width="500" height="30" as="geometry" />
        </mxCell>
        <mxCell id="wnMtdSzb1h41-x0bOQ6u-3" style="edgeStyle=orthogonalEdgeStyle;rounded=0;orthogonalLoop=1;jettySize=auto;html=1;entryX=0;entryY=0.5;entryDx=0;entryDy=0;" edge="1" parent="1" source="wnMtdSzb1h41-x0bOQ6u-4" target="wnMtdSzb1h41-x0bOQ6u-9">
          <mxGeometry relative="1" as="geometry" />
        </mxCell>
        <mxCell id="wnMtdSzb1h41-x0bOQ6u-4" value="Consumption" style="rounded=1;whiteSpace=wrap;html=1;fillColor=#d5e8d4;strokeColor=#82b366;" vertex="1" parent="1">
          <mxGeometry x="80" y="2210" width="120" height="40" as="geometry" />
        </mxCell>
        <mxCell id="wnMtdSzb1h41-x0bOQ6u-17" style="edgeStyle=orthogonalEdgeStyle;rounded=0;orthogonalLoop=1;jettySize=auto;html=1;" edge="1" parent="1" source="wnMtdSzb1h41-x0bOQ6u-9">
          <mxGeometry relative="1" as="geometry">
            <mxPoint x="510" y="2500" as="targetPoint" />
            <Array as="points">
              <mxPoint x="360" y="2390" />
              <mxPoint x="480" y="2390" />
              <mxPoint x="480" y="2500" />
            </Array>
          </mxGeometry>
        </mxCell>
        <mxCell id="wnMtdSzb1h41-x0bOQ6u-9" value="OnpremConsumptionData&lt;br&gt;Labels:&amp;nbsp;create, update" style="rounded=1;whiteSpace=wrap;html=1;fillColor=#dae8fc;strokeColor=#6c8ebf;" vertex="1" parent="1">
          <mxGeometry x="280" y="2190" width="160" height="80" as="geometry" />
        </mxCell>
        <mxCell id="wnMtdSzb1h41-x0bOQ6u-10" value="Portal Report" style="rounded=1;whiteSpace=wrap;html=1;fillColor=#fff2cc;strokeColor=#d6b656;" vertex="1" parent="1">
          <mxGeometry x="710" y="2540" width="120" height="40" as="geometry" />
        </mxCell>
        <mxCell id="wnMtdSzb1h41-x0bOQ6u-11" value="Email Notif (current)" style="rounded=1;whiteSpace=wrap;html=1;fillColor=#fff2cc;strokeColor=#d6b656;" vertex="1" parent="1">
          <mxGeometry x="520" y="2720" width="120" height="40" as="geometry" />
        </mxCell>
        <mxCell id="wnMtdSzb1h41-x0bOQ6u-12" value="Overconsumption Notification" style="rounded=1;whiteSpace=wrap;html=1;fillColor=#fff2cc;strokeColor=#d6b656;" vertex="1" parent="1">
          <mxGeometry x="710" y="2610" width="120" height="40" as="geometry" />
        </mxCell>
        <mxCell id="wnMtdSzb1h41-x0bOQ6u-16" style="edgeStyle=orthogonalEdgeStyle;rounded=0;orthogonalLoop=1;jettySize=auto;html=1;entryX=0;entryY=0.5;entryDx=0;entryDy=0;" edge="1" parent="1" source="wnMtdSzb1h41-x0bOQ6u-14" target="wnMtdSzb1h41-x0bOQ6u-15">
          <mxGeometry relative="1" as="geometry" />
        </mxCell>
        <mxCell id="wnMtdSzb1h41-x0bOQ6u-19" style="edgeStyle=orthogonalEdgeStyle;rounded=0;orthogonalLoop=1;jettySize=auto;html=1;entryX=0;entryY=0.5;entryDx=0;entryDy=0;" edge="1" parent="1" source="wnMtdSzb1h41-x0bOQ6u-14" target="wnMtdSzb1h41-x0bOQ6u-18">
          <mxGeometry relative="1" as="geometry">
            <Array as="points">
              <mxPoint x="360" y="2620" />
            </Array>
          </mxGeometry>
        </mxCell>
        <mxCell id="wnMtdSzb1h41-x0bOQ6u-20" style="edgeStyle=orthogonalEdgeStyle;rounded=0;orthogonalLoop=1;jettySize=auto;html=1;entryX=0;entryY=0.5;entryDx=0;entryDy=0;" edge="1" parent="1" source="wnMtdSzb1h41-x0bOQ6u-14" target="wnMtdSzb1h41-x0bOQ6u-11">
          <mxGeometry relative="1" as="geometry">
            <Array as="points">
              <mxPoint x="410" y="2730" />
              <mxPoint x="520" y="2730" />
            </Array>
          </mxGeometry>
        </mxCell>
        <mxCell id="wnMtdSzb1h41-x0bOQ6u-14" value="CloudConsumptionData&lt;br&gt;Labels:&amp;nbsp;create, update" style="rounded=1;whiteSpace=wrap;html=1;fillColor=#dae8fc;strokeColor=#6c8ebf;" vertex="1" parent="1">
          <mxGeometry x="280" y="2460" width="160" height="80" as="geometry" />
        </mxCell>
        <mxCell id="wnMtdSzb1h41-x0bOQ6u-15" value="MongoReport" style="rounded=1;whiteSpace=wrap;html=1;fillColor=#dae8fc;strokeColor=#6c8ebf;" vertex="1" parent="1">
          <mxGeometry x="510" y="2460" width="160" height="80" as="geometry" />
        </mxCell>
        <mxCell id="wnMtdSzb1h41-x0bOQ6u-21" style="edgeStyle=orthogonalEdgeStyle;rounded=0;orthogonalLoop=1;jettySize=auto;html=1;entryX=0;entryY=0.5;entryDx=0;entryDy=0;" edge="1" parent="1" source="wnMtdSzb1h41-x0bOQ6u-18" target="wnMtdSzb1h41-x0bOQ6u-12">
          <mxGeometry relative="1" as="geometry" />
        </mxCell>
        <mxCell id="wnMtdSzb1h41-x0bOQ6u-22" style="edgeStyle=orthogonalEdgeStyle;rounded=0;orthogonalLoop=1;jettySize=auto;html=1;entryX=0;entryY=0.5;entryDx=0;entryDy=0;" edge="1" parent="1" source="wnMtdSzb1h41-x0bOQ6u-18" target="wnMtdSzb1h41-x0bOQ6u-10">
          <mxGeometry relative="1" as="geometry" />
        </mxCell>
        <mxCell id="wnMtdSzb1h41-x0bOQ6u-18" value="PortalReport" style="rounded=1;whiteSpace=wrap;html=1;fillColor=#dae8fc;strokeColor=#6c8ebf;" vertex="1" parent="1">
          <mxGeometry x="510" y="2580" width="160" height="80" as="geometry" />
        </mxCell>
        <mxCell id="wnMtdSzb1h41-x0bOQ6u-47" style="edgeStyle=orthogonalEdgeStyle;rounded=0;orthogonalLoop=1;jettySize=auto;html=1;startArrow=classic;startFill=1;" edge="1" parent="1" source="wnMtdSzb1h41-x0bOQ6u-29" target="wnMtdSzb1h41-x0bOQ6u-39">
          <mxGeometry relative="1" as="geometry" />
        </mxCell>
        <mxCell id="wnMtdSzb1h41-x0bOQ6u-56" value="aggregate consumption&lt;br&gt;verify client_id" style="edgeLabel;html=1;align=center;verticalAlign=middle;resizable=0;points=[];" vertex="1" connectable="0" parent="wnMtdSzb1h41-x0bOQ6u-47">
          <mxGeometry x="0.0128" y="1" relative="1" as="geometry">
            <mxPoint as="offset" />
          </mxGeometry>
        </mxCell>
        <mxCell id="wnMtdSzb1h41-x0bOQ6u-54" style="edgeStyle=orthogonalEdgeStyle;rounded=0;orthogonalLoop=1;jettySize=auto;html=1;entryX=0;entryY=0.5;entryDx=0;entryDy=0;" edge="1" parent="1" source="wnMtdSzb1h41-x0bOQ6u-29" target="wnMtdSzb1h41-x0bOQ6u-37">
          <mxGeometry relative="1" as="geometry" />
        </mxCell>
        <mxCell id="wnMtdSzb1h41-x0bOQ6u-55" value="Overconsumed event&lt;br&gt;POST: api/webhooks&lt;br&gt;BODY: &lt;br&gt;{&lt;br&gt;&amp;nbsp; &amp;nbsp; event_type: overconsumed&lt;br&gt;}" style="edgeLabel;html=1;align=left;verticalAlign=middle;resizable=0;points=[];labelBorderColor=default;" vertex="1" connectable="0" parent="wnMtdSzb1h41-x0bOQ6u-54">
          <mxGeometry x="-0.1371" relative="1" as="geometry">
            <mxPoint x="-63" as="offset" />
          </mxGeometry>
        </mxCell>
        <mxCell id="wnMtdSzb1h41-x0bOQ6u-29" value="Reporting&lt;br&gt;check % of consump" style="rounded=1;whiteSpace=wrap;html=1;fillColor=#d5e8d4;strokeColor=#82b366;" vertex="1" parent="1">
          <mxGeometry x="1080" y="1280" width="120" height="40" as="geometry" />
        </mxCell>
        <mxCell id="wnMtdSzb1h41-x0bOQ6u-45" value="api/payment-webhooks/stripe" style="edgeStyle=orthogonalEdgeStyle;rounded=0;orthogonalLoop=1;jettySize=auto;html=1;entryX=1;entryY=0.5;entryDx=0;entryDy=0;" edge="1" parent="1" source="wnMtdSzb1h41-x0bOQ6u-32" target="wnMtdSzb1h41-x0bOQ6u-37">
          <mxGeometry relative="1" as="geometry">
            <Array as="points">
              <mxPoint x="1600" y="1180" />
              <mxPoint x="1600" y="1300" />
            </Array>
          </mxGeometry>
        </mxCell>
        <mxCell id="wnMtdSzb1h41-x0bOQ6u-57" style="edgeStyle=orthogonalEdgeStyle;rounded=0;orthogonalLoop=1;jettySize=auto;html=1;" edge="1" parent="1" source="wnMtdSzb1h41-x0bOQ6u-32" target="wnMtdSzb1h41-x0bOQ6u-29">
          <mxGeometry relative="1" as="geometry" />
        </mxCell>
        <mxCell id="wnMtdSzb1h41-x0bOQ6u-58" value="get billing period" style="edgeLabel;html=1;align=center;verticalAlign=middle;resizable=0;points=[];" vertex="1" connectable="0" parent="wnMtdSzb1h41-x0bOQ6u-57">
          <mxGeometry x="0.1335" relative="1" as="geometry">
            <mxPoint as="offset" />
          </mxGeometry>
        </mxCell>
        <mxCell id="wnMtdSzb1h41-x0bOQ6u-32" value="Stripe" style="rounded=1;whiteSpace=wrap;html=1;fillColor=#dae8fc;strokeColor=#6c8ebf;" vertex="1" parent="1">
          <mxGeometry x="1440" y="1160" width="120" height="40" as="geometry" />
        </mxCell>
        <mxCell id="wnMtdSzb1h41-x0bOQ6u-34" value="APIM" style="rounded=1;whiteSpace=wrap;html=1;fillColor=#dae8fc;strokeColor=#6c8ebf;" vertex="1" parent="1">
          <mxGeometry x="1440" y="1400" width="120" height="40" as="geometry" />
        </mxCell>
        <mxCell id="wnMtdSzb1h41-x0bOQ6u-42" style="edgeStyle=orthogonalEdgeStyle;rounded=0;orthogonalLoop=1;jettySize=auto;html=1;entryX=0.5;entryY=1;entryDx=0;entryDy=0;" edge="1" parent="1" source="wnMtdSzb1h41-x0bOQ6u-37" target="wnMtdSzb1h41-x0bOQ6u-32">
          <mxGeometry relative="1" as="geometry" />
        </mxCell>
        <mxCell id="wnMtdSzb1h41-x0bOQ6u-43" style="edgeStyle=orthogonalEdgeStyle;rounded=0;orthogonalLoop=1;jettySize=auto;html=1;" edge="1" parent="1" source="wnMtdSzb1h41-x0bOQ6u-37" target="wnMtdSzb1h41-x0bOQ6u-34">
          <mxGeometry relative="1" as="geometry" />
        </mxCell>
        <mxCell id="wnMtdSzb1h41-x0bOQ6u-44" value="activate / deactivate" style="edgeLabel;html=1;align=center;verticalAlign=middle;resizable=0;points=[];" vertex="1" connectable="0" parent="wnMtdSzb1h41-x0bOQ6u-43">
          <mxGeometry x="-0.3765" y="2" relative="1" as="geometry">
            <mxPoint x="-2" y="15" as="offset" />
          </mxGeometry>
        </mxCell>
        <mxCell id="wnMtdSzb1h41-x0bOQ6u-37" value="Portal" style="rounded=1;whiteSpace=wrap;html=1;fillColor=#d5e8d4;strokeColor=#82b366;" vertex="1" parent="1">
          <mxGeometry x="1440" y="1280" width="120" height="40" as="geometry" />
        </mxCell>
        <mxCell id="wnMtdSzb1h41-x0bOQ6u-39" value="PortalDB" style="shape=cylinder3;whiteSpace=wrap;html=1;boundedLbl=1;backgroundOutline=1;size=15;fillColor=#d5e8d4;strokeColor=#82b366;" vertex="1" parent="1">
          <mxGeometry x="1110" y="1400" width="60" height="80" as="geometry" />
        </mxCell>
        <mxCell id="wnMtdSzb1h41-x0bOQ6u-46" style="edgeStyle=orthogonalEdgeStyle;rounded=0;orthogonalLoop=1;jettySize=auto;html=1;entryX=0;entryY=0.5;entryDx=0;entryDy=0;" edge="1" parent="1" source="wnMtdSzb1h41-x0bOQ6u-41" target="wnMtdSzb1h41-x0bOQ6u-29">
          <mxGeometry relative="1" as="geometry" />
        </mxCell>
        <mxCell id="wnMtdSzb1h41-x0bOQ6u-41" value="Redact Container" style="rounded=1;whiteSpace=wrap;html=1;fillColor=#d5e8d4;strokeColor=#82b366;" vertex="1" parent="1">
          <mxGeometry x="920" y="1280" width="120" height="40" as="geometry" />
        </mxCell>
      </root>
    </mxGraphModel>
  </diagram>
</mxfile>
